<svg viewBox="0 0 90 90" xmlns="http://www.w3.org/2000/svg"><circle cx="45" cy="45" fill="#94c3cb" r="45"/><path d="m52.7 21h-24.87c-.69 0-1.25.56-1.25 1.65v45.49a1.29 1.29 0 0 0 1.25.86h34.34a1.29 1.29 0 0 0 1.25-.86v-36c0-.6-.08-.79-.22-.93l-10-10a.76.76 0 0 0 -.5-.21z" fill="#cfcdcc"/><path d="m62.17 69h-34.34a1.25 1.25 0 0 1 -1.25-1.25v-13.32h36.85v13.32a1.25 1.25 0 0 1 -1.26 1.25z" fill="#bdbbba"/><path d="m27.43 53.79c3.43-2.57 13.29-10.93 13.29-10.93l9.86 11.36z" fill="#be5e50"/><path d="m54.86 37.07-9 9.86 5.57 7.29h12v-6.86z" fill="#ab5448"/><g fill="#2a373e"><path d="m57 52.66h1v1h-1z"/><path d="m55 52.66h1v1h-1z"/><path d="m57.33 51.65-.91-.99h-.09v1h1z"/><path d="m54.33 50.66h1v1h-1z"/><path d="m53 46.93v.73h.67z"/><path d="m51 46.66h1v1h-1z"/><path d="m49 46.66h1v1h-1z"/><path d="m48 47.66v-1h-.17-.83v1h.83z"/><path d="m51.33 45.11-.41-.45h-.59v1h1z"/><path d="m48.33 44.66h1v1h-1z"/><path d="m53 52.66v1h.83.17v-1h-.17z"/><path d="m51 52.66h1v1h-1z"/><path d="m52.33 50.66h1v1h-1z"/><path d="m50.33 50.66h1v1h-1z"/><path d="m49.19 51.66h.14v-1h-.91z"/><path d="m53.67 49.66h.16.84v-.92l-.08-.08h-.76-.16z"/><path d="m51.67 48.66h1v1h-1z"/><path d="m49.67 48.66h1v1h-1z"/><path d="m48.67 48.66h-.84-.16v1h.16.84z"/></g><path d="m53.14 22.19v9.09h9.09a.44.44 0 0 0 .31-.75l-8.65-8.65a.44.44 0 0 0 -.75.31z" fill="#cfcdcc"/><circle cx="38" cy="31" fill="#eff0ef" r="3.5"/><path d="m39.73 63.49a2.07 2.07 0 0 1 -2.24 2.27 2.66 2.66 0 0 1 -2.12-1l.58-.93a2.2 2.2 0 0 0 1.53.79c.65 0 1-.4 1-1.14v-3.87h-2.48v-1.09h3.71z" fill="#2a373e"/><path d="m44.44 58.52c1.81 0 2.85.89 2.85 2.46s-1 2.57-2.85 2.57h-1.65v2.17h-1.21v-7.2zm-1.65 3.94h1.6c1.11 0 1.74-.47 1.74-1.45s-.63-1.4-1.74-1.4h-1.6z" fill="#2a373e"/><path d="m54.58 62.18v2.65a4.88 4.88 0 0 1 -2.8.94 3.64 3.64 0 1 1 .07-7.28 4.32 4.32 0 0 1 2.77 1l-.69.9a3.12 3.12 0 0 0 -2.08-.82 2.56 2.56 0 1 0 0 5.11 3.36 3.36 0 0 0 1.66-.49v-2z" fill="#2a373e"/><path d="m63.92 30.49-10-10a1.77 1.77 0 0 0 -1.22-.49h-24.87a2.36 2.36 0 0 0 -2.25 2.65v45.49a2 2 0 0 0 1.34 1.66l.24.08.19.05a2.23 2.23 0 0 0 .43 0h34.39a2.23 2.23 0 0 0 .43 0l.19-.06.24-.07a2 2 0 0 0 1.34-1.66v-36a2.12 2.12 0 0 0 -.45-1.65zm-15.07 22.94h-19.13l11.28-9.97zm2.53 0v-.06l-4.72-6 8.18-9 7.62 9.53v5.51zm9.51-23.14h-6.75v-6.75zm-33.06-8.29h24.34a1.41 1.41 0 0 0 0 .19v9.09a1 1 0 0 0 1 1h9.09.19v12.44l-6.79-8.49a1 1 0 0 0 -.75-.37.94.94 0 0 0 -.77.33l-8.75 9.58-3.45-4.37a1 1 0 0 0 -.54-.4h-.28a1 1 0 0 0 -.6.24l-12.94 11v-29.59c-.01-.22.04-.65.25-.65zm0 46a.25.25 0 0 1 -.25-.25v-12.32h34.85v12.32a.25.25 0 0 1 -.25.25z" fill="#2a373e"/><path d="m38 35.5a4.5 4.5 0 1 0 -4.5-4.5 4.51 4.51 0 0 0 4.5 4.5zm0-7a2.5 2.5 0 1 1 -2.5 2.5 2.5 2.5 0 0 1 2.5-2.5z" fill="#2a373e"/></svg>